<mxfile host="app.diagrams.net" modified="2023-05-12T08:56:36.067Z" agent="Mozilla/5.0 (Windows NT 10.0; Win64; x64) AppleWebKit/537.36 (KHTML, like Gecko) Chrome/112.0.0.0 Safari/537.36" etag="BrR-iiN8uYvhzBY7ri6n" version="21.1.7" type="github">
  <diagram name="Page-1" id="OBGTPEjLsC2_r85CB87B">
    <mxGraphModel dx="2077" dy="1916" grid="1" gridSize="10" guides="1" tooltips="1" connect="1" arrows="1" fold="1" page="1" pageScale="1" pageWidth="827" pageHeight="1169" math="0" shadow="0">
      <root>
        <mxCell id="0" />
        <mxCell id="1" parent="0" />
        <mxCell id="u32UJrwmcc9qqT0s-enV-2" value="&lt;font style=&quot;font-size: 14px;&quot;&gt;执行层&lt;/font&gt;" style="rounded=1;whiteSpace=wrap;html=1;fillColor=#dae8fc;strokeColor=#6c8ebf;" vertex="1" parent="1">
          <mxGeometry y="10" width="130" height="600" as="geometry" />
        </mxCell>
        <mxCell id="u32UJrwmcc9qqT0s-enV-40" value="&lt;font style=&quot;font-size: 14px;&quot;&gt;ERP系统&lt;/font&gt;" style="rounded=1;whiteSpace=wrap;html=1;fillColor=#f8cecc;strokeColor=#b85450;" vertex="1" parent="1">
          <mxGeometry x="180" y="-40" width="1250" height="30" as="geometry" />
        </mxCell>
        <mxCell id="u32UJrwmcc9qqT0s-enV-41" value="&lt;font style=&quot;font-size: 14px;&quot;&gt;计划层&lt;/font&gt;" style="rounded=1;whiteSpace=wrap;html=1;fillColor=#d5e8d4;strokeColor=#82b366;" vertex="1" parent="1">
          <mxGeometry x="10" y="-40" width="120" height="30" as="geometry" />
        </mxCell>
        <mxCell id="u32UJrwmcc9qqT0s-enV-77" value="&lt;font style=&quot;font-size: 16px;&quot;&gt;设备&lt;br&gt;自动&lt;br&gt;采集&lt;br&gt;系统&lt;/font&gt;" style="rounded=0;whiteSpace=wrap;html=1;fillColor=#dae8fc;strokeColor=#6c8ebf;" vertex="1" parent="1">
          <mxGeometry x="1460" y="112" width="120" height="515" as="geometry" />
        </mxCell>
        <mxCell id="u32UJrwmcc9qqT0s-enV-108" value="" style="rounded=1;whiteSpace=wrap;html=1;" vertex="1" parent="1">
          <mxGeometry x="190" y="10" width="1240" height="590" as="geometry" />
        </mxCell>
        <mxCell id="u32UJrwmcc9qqT0s-enV-109" value="&lt;font style=&quot;font-size: 14px;&quot;&gt;MES数据库&lt;/font&gt;" style="strokeWidth=2;html=1;shape=mxgraph.flowchart.database;whiteSpace=wrap;fillColor=#fff2cc;strokeColor=#d6b656;" vertex="1" parent="1">
          <mxGeometry x="230" y="340" width="80" height="80" as="geometry" />
        </mxCell>
        <mxCell id="u32UJrwmcc9qqT0s-enV-110" value="&lt;font style=&quot;font-size: 14px;&quot;&gt;计划&lt;/font&gt;" style="rounded=1;whiteSpace=wrap;html=1;fillColor=#e51400;strokeColor=#B20000;fontColor=#ffffff;" vertex="1" parent="1">
          <mxGeometry x="230" y="90" width="130" height="40" as="geometry" />
        </mxCell>
        <mxCell id="u32UJrwmcc9qqT0s-enV-111" value="&lt;font style=&quot;font-size: 14px;&quot;&gt;工单&lt;/font&gt;" style="rounded=1;whiteSpace=wrap;html=1;fillColor=#1ba1e2;strokeColor=#006EAF;fontColor=#ffffff;" vertex="1" parent="1">
          <mxGeometry x="417" y="90" width="110" height="40" as="geometry" />
        </mxCell>
        <mxCell id="u32UJrwmcc9qqT0s-enV-112" value="&lt;font style=&quot;font-size: 14px;&quot;&gt;排程&lt;/font&gt;" style="rounded=1;whiteSpace=wrap;html=1;fillColor=#e51400;strokeColor=#B20000;fontColor=#ffffff;" vertex="1" parent="1">
          <mxGeometry x="570" y="90" width="120" height="40" as="geometry" />
        </mxCell>
        <mxCell id="u32UJrwmcc9qqT0s-enV-113" value="&lt;font style=&quot;font-size: 14px;&quot;&gt;生产&lt;/font&gt;" style="rounded=1;whiteSpace=wrap;html=1;fillColor=#1ba1e2;strokeColor=#006EAF;fontColor=#ffffff;" vertex="1" parent="1">
          <mxGeometry x="740" y="90" width="130" height="40" as="geometry" />
        </mxCell>
        <mxCell id="u32UJrwmcc9qqT0s-enV-114" value="&lt;font style=&quot;font-size: 15px;&quot;&gt;入&lt;/font&gt;&lt;font style=&quot;font-size: 14px;&quot;&gt;库&lt;/font&gt;" style="rounded=1;whiteSpace=wrap;html=1;fillColor=#e51400;strokeColor=#B20000;fontColor=#ffffff;" vertex="1" parent="1">
          <mxGeometry x="1120" y="90" width="130" height="40" as="geometry" />
        </mxCell>
        <mxCell id="u32UJrwmcc9qqT0s-enV-115" value="&lt;font style=&quot;font-size: 14px;&quot;&gt;质量&lt;/font&gt;" style="rounded=1;whiteSpace=wrap;html=1;fillColor=#1ba1e2;strokeColor=#006EAF;fontColor=#ffffff;" vertex="1" parent="1">
          <mxGeometry x="920" y="90" width="130" height="40" as="geometry" />
        </mxCell>
        <mxCell id="u32UJrwmcc9qqT0s-enV-116" value="" style="endArrow=classic;html=1;rounded=0;entryX=0.027;entryY=0.5;entryDx=0;entryDy=0;entryPerimeter=0;" edge="1" parent="1" target="u32UJrwmcc9qqT0s-enV-111">
          <mxGeometry width="50" height="50" relative="1" as="geometry">
            <mxPoint x="360" y="110" as="sourcePoint" />
            <mxPoint x="410" y="110" as="targetPoint" />
          </mxGeometry>
        </mxCell>
        <mxCell id="u32UJrwmcc9qqT0s-enV-117" value="" style="endArrow=classic;html=1;rounded=0;entryX=0;entryY=0.5;entryDx=0;entryDy=0;" edge="1" parent="1" target="u32UJrwmcc9qqT0s-enV-112">
          <mxGeometry width="50" height="50" relative="1" as="geometry">
            <mxPoint x="530" y="110" as="sourcePoint" />
            <mxPoint x="580" y="60" as="targetPoint" />
          </mxGeometry>
        </mxCell>
        <mxCell id="u32UJrwmcc9qqT0s-enV-118" value="" style="endArrow=classic;html=1;rounded=0;entryX=0;entryY=0.5;entryDx=0;entryDy=0;" edge="1" parent="1" target="u32UJrwmcc9qqT0s-enV-113">
          <mxGeometry width="50" height="50" relative="1" as="geometry">
            <mxPoint x="690" y="110" as="sourcePoint" />
            <mxPoint x="740" y="60" as="targetPoint" />
          </mxGeometry>
        </mxCell>
        <mxCell id="u32UJrwmcc9qqT0s-enV-119" value="" style="endArrow=classic;html=1;rounded=0;entryX=0;entryY=0.5;entryDx=0;entryDy=0;" edge="1" parent="1" target="u32UJrwmcc9qqT0s-enV-115">
          <mxGeometry width="50" height="50" relative="1" as="geometry">
            <mxPoint x="870" y="110" as="sourcePoint" />
            <mxPoint x="920" y="60" as="targetPoint" />
          </mxGeometry>
        </mxCell>
        <mxCell id="u32UJrwmcc9qqT0s-enV-120" value="" style="endArrow=classic;html=1;rounded=0;" edge="1" parent="1">
          <mxGeometry width="50" height="50" relative="1" as="geometry">
            <mxPoint x="1050" y="110" as="sourcePoint" />
            <mxPoint x="1110" y="110" as="targetPoint" />
          </mxGeometry>
        </mxCell>
        <mxCell id="u32UJrwmcc9qqT0s-enV-121" value="" style="rounded=1;whiteSpace=wrap;html=1;" vertex="1" parent="1">
          <mxGeometry x="340" y="170" width="140" height="420" as="geometry" />
        </mxCell>
        <mxCell id="u32UJrwmcc9qqT0s-enV-122" value="&lt;font style=&quot;font-size: 14px;&quot;&gt;MES服务器&lt;/font&gt;" style="shape=cylinder3;whiteSpace=wrap;html=1;boundedLbl=1;backgroundOutline=1;size=15;" vertex="1" parent="1">
          <mxGeometry x="370" y="338" width="80" height="63" as="geometry" />
        </mxCell>
        <mxCell id="u32UJrwmcc9qqT0s-enV-123" value="&lt;font style=&quot;font-size: 14px;&quot;&gt;MQ服务器&lt;/font&gt;" style="shape=cylinder3;whiteSpace=wrap;html=1;boundedLbl=1;backgroundOutline=1;size=15;" vertex="1" parent="1">
          <mxGeometry x="374" y="450" width="80" height="63" as="geometry" />
        </mxCell>
        <mxCell id="u32UJrwmcc9qqT0s-enV-124" value="&lt;font style=&quot;font-size: 14px;&quot;&gt;FTP服务器&lt;/font&gt;" style="shape=cylinder3;whiteSpace=wrap;html=1;boundedLbl=1;backgroundOutline=1;size=15;" vertex="1" parent="1">
          <mxGeometry x="374" y="230" width="80" height="63" as="geometry" />
        </mxCell>
        <mxCell id="u32UJrwmcc9qqT0s-enV-125" value="" style="rounded=0;whiteSpace=wrap;html=1;" vertex="1" parent="1">
          <mxGeometry x="1310" y="210" width="90" height="360" as="geometry" />
        </mxCell>
        <mxCell id="u32UJrwmcc9qqT0s-enV-126" value="&lt;div&gt;&lt;font style=&quot;font-size: 15px;&quot;&gt;API&lt;/font&gt;&lt;/div&gt;" style="rounded=0;whiteSpace=wrap;html=1;" vertex="1" parent="1">
          <mxGeometry x="1325.5" y="230" width="59" height="310" as="geometry" />
        </mxCell>
        <mxCell id="u32UJrwmcc9qqT0s-enV-127" value="" style="rounded=0;whiteSpace=wrap;html=1;" vertex="1" parent="1">
          <mxGeometry x="510" y="170" width="780" height="420" as="geometry" />
        </mxCell>
        <mxCell id="u32UJrwmcc9qqT0s-enV-128" value="&lt;font style=&quot;font-size: 14px;&quot;&gt;主数据配置&lt;/font&gt;" style="rounded=1;whiteSpace=wrap;html=1;fillColor=#e1d5e7;strokeColor=#9673a6;" vertex="1" parent="1">
          <mxGeometry x="530" y="180" width="120" height="40" as="geometry" />
        </mxCell>
        <mxCell id="u32UJrwmcc9qqT0s-enV-129" value="任务和步骤状态" style="rounded=1;whiteSpace=wrap;html=1;fillColor=#fff2cc;strokeColor=#d6b656;" vertex="1" parent="1">
          <mxGeometry x="530" y="300" width="120" height="40" as="geometry" />
        </mxCell>
        <mxCell id="u32UJrwmcc9qqT0s-enV-130" value="&lt;font style=&quot;font-size: 14px;&quot;&gt;产品定义&lt;/font&gt;" style="rounded=1;whiteSpace=wrap;html=1;fillColor=#e1d5e7;strokeColor=#9673a6;" vertex="1" parent="1">
          <mxGeometry x="680" y="181" width="120" height="40" as="geometry" />
        </mxCell>
        <mxCell id="u32UJrwmcc9qqT0s-enV-131" value="物料类别" style="rounded=1;whiteSpace=wrap;html=1;fillColor=#fff2cc;strokeColor=#d6b656;" vertex="1" parent="1">
          <mxGeometry x="680" y="241" width="120" height="40" as="geometry" />
        </mxCell>
        <mxCell id="u32UJrwmcc9qqT0s-enV-132" value="物料状态" style="rounded=1;whiteSpace=wrap;html=1;fillColor=#fff2cc;strokeColor=#d6b656;" vertex="1" parent="1">
          <mxGeometry x="680" y="301" width="120" height="40" as="geometry" />
        </mxCell>
        <mxCell id="u32UJrwmcc9qqT0s-enV-133" value="物料" style="rounded=1;whiteSpace=wrap;html=1;fillColor=#fff2cc;strokeColor=#d6b656;" vertex="1" parent="1">
          <mxGeometry x="680" y="421" width="120" height="40" as="geometry" />
        </mxCell>
        <mxCell id="u32UJrwmcc9qqT0s-enV-134" value="物料清单" style="rounded=1;whiteSpace=wrap;html=1;fillColor=#fff2cc;strokeColor=#d6b656;" vertex="1" parent="1">
          <mxGeometry x="680" y="361" width="120" height="40" as="geometry" />
        </mxCell>
        <mxCell id="u32UJrwmcc9qqT0s-enV-135" value="&lt;font style=&quot;font-size: 14px;&quot;&gt;操作管理&lt;/font&gt;" style="rounded=1;whiteSpace=wrap;html=1;fillColor=#e1d5e7;strokeColor=#9673a6;" vertex="1" parent="1">
          <mxGeometry x="840" y="181" width="120" height="40" as="geometry" />
        </mxCell>
        <mxCell id="u32UJrwmcc9qqT0s-enV-136" value="工艺管理" style="rounded=1;whiteSpace=wrap;html=1;fillColor=#fff2cc;strokeColor=#d6b656;" vertex="1" parent="1">
          <mxGeometry x="840" y="241" width="120" height="40" as="geometry" />
        </mxCell>
        <mxCell id="u32UJrwmcc9qqT0s-enV-137" value="工序管理" style="rounded=1;whiteSpace=wrap;html=1;fillColor=#fff2cc;strokeColor=#d6b656;" vertex="1" parent="1">
          <mxGeometry x="840" y="301" width="120" height="40" as="geometry" />
        </mxCell>
        <mxCell id="u32UJrwmcc9qqT0s-enV-138" value="&lt;font style=&quot;font-size: 14px;&quot;&gt;工单管理&lt;/font&gt;" style="rounded=1;whiteSpace=wrap;html=1;fillColor=#e1d5e7;strokeColor=#9673a6;" vertex="1" parent="1">
          <mxGeometry x="990" y="181" width="120" height="40" as="geometry" />
        </mxCell>
        <mxCell id="u32UJrwmcc9qqT0s-enV-139" value="工单管理" style="rounded=1;whiteSpace=wrap;html=1;fillColor=#fff2cc;strokeColor=#d6b656;" vertex="1" parent="1">
          <mxGeometry x="990" y="241" width="120" height="40" as="geometry" />
        </mxCell>
        <mxCell id="u32UJrwmcc9qqT0s-enV-140" value="任务管理" style="rounded=1;whiteSpace=wrap;html=1;fillColor=#fff2cc;strokeColor=#d6b656;" vertex="1" parent="1">
          <mxGeometry x="990" y="301" width="120" height="40" as="geometry" />
        </mxCell>
        <mxCell id="u32UJrwmcc9qqT0s-enV-141" value="产量管理" style="rounded=1;whiteSpace=wrap;html=1;fillColor=#fff2cc;strokeColor=#d6b656;" vertex="1" parent="1">
          <mxGeometry x="990" y="361" width="120" height="40" as="geometry" />
        </mxCell>
        <mxCell id="u32UJrwmcc9qqT0s-enV-142" value="&lt;font style=&quot;font-size: 14px;&quot;&gt;质量管理&lt;/font&gt;" style="rounded=1;whiteSpace=wrap;html=1;fillColor=#e1d5e7;strokeColor=#9673a6;" vertex="1" parent="1">
          <mxGeometry x="1140" y="181" width="120" height="40" as="geometry" />
        </mxCell>
        <mxCell id="u32UJrwmcc9qqT0s-enV-143" value="采样频率管理" style="rounded=1;whiteSpace=wrap;html=1;fillColor=#fff2cc;strokeColor=#d6b656;" vertex="1" parent="1">
          <mxGeometry x="1140" y="241" width="120" height="40" as="geometry" />
        </mxCell>
        <mxCell id="u32UJrwmcc9qqT0s-enV-144" value="采样计划管理" style="rounded=1;whiteSpace=wrap;html=1;fillColor=#fff2cc;strokeColor=#d6b656;" vertex="1" parent="1">
          <mxGeometry x="1140" y="301" width="120" height="40" as="geometry" />
        </mxCell>
        <mxCell id="u32UJrwmcc9qqT0s-enV-145" value="特征管理" style="rounded=1;whiteSpace=wrap;html=1;fillColor=#fff2cc;strokeColor=#d6b656;" vertex="1" parent="1">
          <mxGeometry x="1140" y="361" width="120" height="40" as="geometry" />
        </mxCell>
        <mxCell id="u32UJrwmcc9qqT0s-enV-146" value="质量管理规格" style="rounded=1;whiteSpace=wrap;html=1;fillColor=#fff2cc;strokeColor=#d6b656;" vertex="1" parent="1">
          <mxGeometry x="1140" y="421" width="120" height="40" as="geometry" />
        </mxCell>
        <mxCell id="u32UJrwmcc9qqT0s-enV-147" value="采样管理" style="rounded=1;whiteSpace=wrap;html=1;fillColor=#fff2cc;strokeColor=#d6b656;" vertex="1" parent="1">
          <mxGeometry x="1140" y="481" width="120" height="40" as="geometry" />
        </mxCell>
        <mxCell id="u32UJrwmcc9qqT0s-enV-148" value="SPC图展示" style="rounded=1;whiteSpace=wrap;html=1;fillColor=#fff2cc;strokeColor=#d6b656;" vertex="1" parent="1">
          <mxGeometry x="1140" y="541" width="120" height="40" as="geometry" />
        </mxCell>
        <mxCell id="u32UJrwmcc9qqT0s-enV-149" value="实体管理" style="rounded=1;whiteSpace=wrap;html=1;fillColor=#fff2cc;strokeColor=#d6b656;" vertex="1" parent="1">
          <mxGeometry x="530" y="240" width="120" height="40" as="geometry" />
        </mxCell>
        <mxCell id="u32UJrwmcc9qqT0s-enV-150" style="edgeStyle=orthogonalEdgeStyle;rounded=0;orthogonalLoop=1;jettySize=auto;html=1;exitX=0.5;exitY=1;exitDx=0;exitDy=0;" edge="1" parent="1" source="u32UJrwmcc9qqT0s-enV-141" target="u32UJrwmcc9qqT0s-enV-141">
          <mxGeometry relative="1" as="geometry" />
        </mxCell>
        <mxCell id="u32UJrwmcc9qqT0s-enV-151" value="工序路线" style="rounded=1;whiteSpace=wrap;html=1;fillColor=#fff2cc;strokeColor=#d6b656;" vertex="1" parent="1">
          <mxGeometry x="840" y="361" width="120" height="40" as="geometry" />
        </mxCell>
        <mxCell id="u32UJrwmcc9qqT0s-enV-157" value="" style="endArrow=classic;startArrow=classic;html=1;rounded=0;exitX=0.25;exitY=0;exitDx=0;exitDy=0;entryX=0.246;entryY=1;entryDx=0;entryDy=0;entryPerimeter=0;" edge="1" parent="1" target="u32UJrwmcc9qqT0s-enV-108">
          <mxGeometry width="50" height="50" relative="1" as="geometry">
            <mxPoint x="494.50000000000273" y="650" as="sourcePoint" />
            <mxPoint x="487" y="600" as="targetPoint" />
          </mxGeometry>
        </mxCell>
        <mxCell id="u32UJrwmcc9qqT0s-enV-158" value="" style="endArrow=classic;startArrow=classic;html=1;rounded=0;exitX=0.544;exitY=-0.028;exitDx=0;exitDy=0;entryX=0.55;entryY=1;entryDx=0;entryDy=0;entryPerimeter=0;exitPerimeter=0;" edge="1" parent="1" target="u32UJrwmcc9qqT0s-enV-108">
          <mxGeometry width="50" height="50" relative="1" as="geometry">
            <mxPoint x="870.8800000000001" y="648.8800000000001" as="sourcePoint" />
            <mxPoint x="505" y="610" as="targetPoint" />
            <Array as="points" />
          </mxGeometry>
        </mxCell>
        <mxCell id="u32UJrwmcc9qqT0s-enV-161" value="" style="endArrow=classic;startArrow=classic;html=1;rounded=0;entryX=0;entryY=0.5;entryDx=0;entryDy=0;" edge="1" parent="1" target="u32UJrwmcc9qqT0s-enV-121">
          <mxGeometry width="50" height="50" relative="1" as="geometry">
            <mxPoint x="310" y="380" as="sourcePoint" />
            <mxPoint x="360" y="330" as="targetPoint" />
          </mxGeometry>
        </mxCell>
        <mxCell id="u32UJrwmcc9qqT0s-enV-162" value="" style="endArrow=classic;startArrow=classic;html=1;rounded=0;entryX=0;entryY=0.5;entryDx=0;entryDy=0;" edge="1" parent="1" target="u32UJrwmcc9qqT0s-enV-127">
          <mxGeometry width="50" height="50" relative="1" as="geometry">
            <mxPoint x="480" y="380" as="sourcePoint" />
            <mxPoint x="530" y="330" as="targetPoint" />
          </mxGeometry>
        </mxCell>
        <mxCell id="u32UJrwmcc9qqT0s-enV-164" value="&lt;font style=&quot;font-size: 14px;&quot;&gt;MES系统&lt;/font&gt;" style="rounded=0;whiteSpace=wrap;html=1;fillColor=#d5e8d4;strokeColor=#82b366;" vertex="1" parent="1">
          <mxGeometry x="230" y="30" width="1160" height="40" as="geometry" />
        </mxCell>
        <mxCell id="u32UJrwmcc9qqT0s-enV-165" value="&lt;font style=&quot;font-size: 14px;&quot;&gt;控制层&lt;/font&gt;" style="rounded=1;whiteSpace=wrap;html=1;fillColor=#e1d5e7;strokeColor=#9673a6;" vertex="1" parent="1">
          <mxGeometry x="10" y="650" width="120" height="40" as="geometry" />
        </mxCell>
        <mxCell id="u32UJrwmcc9qqT0s-enV-166" value="&lt;font style=&quot;font-size: 14px;&quot;&gt;打印机、扫码枪、PC、手机、平板&lt;/font&gt;" style="rounded=1;whiteSpace=wrap;html=1;fillColor=#e1d5e7;strokeColor=#9673a6;" vertex="1" parent="1">
          <mxGeometry x="190" y="650" width="1270" height="40" as="geometry" />
        </mxCell>
        <mxCell id="u32UJrwmcc9qqT0s-enV-167" value="&lt;font style=&quot;font-size: 20px;&quot;&gt;业务架构图&lt;/font&gt;" style="rounded=1;whiteSpace=wrap;html=1;fillColor=#e1d5e7;strokeColor=#9673a6;" vertex="1" parent="1">
          <mxGeometry x="10" y="-110" width="1570" height="50" as="geometry" />
        </mxCell>
      </root>
    </mxGraphModel>
  </diagram>
</mxfile>
